PathFileType	4	(X/Y/Z)	/home/alexbeat/data/kuopio-gait-dataset/01/mocap/calib_static_markers.trc
DataRate	CameraRate	NumFrames	NumMarkers	Units	OrigDataRate	OrigDataStartFrame	OrigNumFrames
100.000000	100.000000	4	70	mm	100.000000	79	211
Frame#	Time	Pelvis1			Pelvis2			Pelvis3			Pelvis4			Torso1			Torso2			Torso3			Torso4			RFemur1			RFemur2			RFemur3			RFemur4			LFemur1			LFemur2			LFemur3			LFemur4			RTibia1			RTibia2			RTibia3			RTibia4			LTibia1			LTibia2			LTibia3			LTibia4			LFoot1			LFoot2			LFoot3			RFoot1			RFoot2			RFoot3			*30			*31			*32			*33			*34			*35			*36			*37			*38			Pelvis_RFemur_score			Pelvis_LFemur_score			RFemur_RTibia_score			RFemur_RTibia_sara			LFemur_LTibia_score			LFemur_LTibia_sara			RKnee			LKnee			RTibia_RFoot_score			LTibia_LFoot_score			USERMO0			USERMO1			USERMO2			USERMO3			USERMO4			USERMO5			USERMO6			USERMO7			USERMO8			USERMO9			USERMO10			USERMO11			USERMO12			USERMO13			USERMO14			USERMO15			USERMO16			USERMO17			USERMO18			USERMO19			USERMO20			
		X1	Y1	Z1	X2	Y2	Z2	X3	Y3	Z3	X4	Y4	Z4	X5	Y5	Z5	X6	Y6	Z6	X7	Y7	Z7	X8	Y8	Z8	X9	Y9	Z9	X10	Y10	Z10	X11	Y11	Z11	X12	Y12	Z12	X13	Y13	Z13	X14	Y14	Z14	X15	Y15	Z15	X16	Y16	Z16	X17	Y17	Z17	X18	Y18	Z18	X19	Y19	Z19	X20	Y20	Z20	X21	Y21	Z21	X22	Y22	Z22	X23	Y23	Z23	X24	Y24	Z24	X25	Y25	Z25	X26	Y26	Z26	X27	Y27	Z27	X28	Y28	Z28	X29	Y29	Z29	X30	Y30	Z30	X31	Y31	Z31	X32	Y32	Z32	X33	Y33	Z33	X34	Y34	Z34	X35	Y35	Z35	X36	Y36	Z36	X37	Y37	Z37	X38	Y38	Z38	X39	Y39	Z39	X40	Y40	Z40	X41	Y41	Z41	X42	Y42	Z42	X43	Y43	Z43	X44	Y44	Z44	X45	Y45	Z45	X46	Y46	Z46	X47	Y47	Z47	X48	Y48	Z48	X49	Y49	Z49	X50	Y50	Z50	X51	Y51	Z51	X52	Y52	Z52	X53	Y53	Z53	X54	Y54	Z54	X55	Y55	Z55	X56	Y56	Z56	X57	Y57	Z57	X58	Y58	Z58	X59	Y59	Z59	X60	Y60	Z60	X61	Y61	Z61	X62	Y62	Z62	X63	Y63	Z63	X64	Y64	Z64	X65	Y65	Z65	X66	Y66	Z66	X67	Y67	Z67	X68	Y68	Z68	X69	Y69	Z69	X70	Y70	Z70	

80	0.79	344.8495178222657	1027.446044921875	-306.395751953125	347.4854431152344	1030.270263671875	-225.7548217773438	315.5924072265626	916.1704711914062	-227.6547393798828	314.0018310546876	916.926025390625	-297.4864196777344	501.3718872070313	1421.9677734375	-262.2738037109374	446.8755187988282	1439.956176757812	-91.33094787597653	440.8406372070313	1464.586059570312	-435.7437133789062	369.0605773925782	1491.114501953125	-253.8536834716797	398.2142944335939	647.3875732421875	-90.99935150146482	394.2551879882812	545.1748046875	-101.2454605102539	422.6593322753907	592.3089599609375	-89.67420959472653	459.8467712402344	591.52197265625	-84.96847534179685	421.7601013183594	668.8110961914062	-434.1871337890625	483.2249145507812	632.22802734375	-433.4227294921874	422.7752685546876	563.1519775390625	-423.2454833984375	441.2041015625001	634.1682739257812	-434.3582763671875	377.3430480957031	363.5994567871094	-92.9856262207031	396.5361022949219	419.1527099609375	-96.99263000488278	391.7491149902344	317.5411071777344	-92.05193328857419	338.9136047363281	366.5208435058594	-109.4737777709961	363.5602416992188	372.5492248535156	-426.2816162109375	405.1817321777344	350.452880859375	-431.949462890625	412.8689575195312	285.2721557617188	-423.9219055175781	430.1858825683594	394.6548156738281	-424.6021728515625	320.4344482421875	28.17078399658201	-335.2501831054688	555.3246459960938	23.29128074645993	-377.7763977050781	505.9699401855469	23.19826507568356	-421.9295349121093	331.4988098144531	26.48996162414549	-179.6271514892578	561.9956665039062	22.26542282104488	-118.1985015869141	505.9724731445312	21.01316452026364	-76.23662567138669	-1841.720092773438	615.0714721679689	-1498.180541992188	-1909.341552734375	704.5220947265626	-1584.2783203125	-1802.658813476562	662.8286743164064	-1627.211303710938	-1821.152465820312	658.2536621093751	-1628.14306640625	nan	nan	nan	nan	nan	nan	nan	nan	nan	576.4770507812501	1629.531616210938	-313.3796691894531	nan	nan	nan	453.4021606445312	903.8955078125	-139.9344329833984	457.3117675781251	892.1680908203125	-375.492919921875	417.3587036132812	461.2439575195312	-145.1284332275391	431.9258422851562	467.0468139648438	-243.8914031982422	433.1923828125	458.4365539550781	-364.1566162109375	437.1687927246094	461.2978515625	-264.2766723632812	417.3590087890625	461.2439880371094	-145.1280059814453	433.1919860839844	458.43701171875	-364.1570129394531	356.8014526367188	8.865821838378885	-223.0001983642578	337.5411987304688	18.63206863403318	-373.1544799804688	-1.481999635696411	-0.7368395924568175	0.8916500806808471	0.442604035139084	0.6214098334312439	-0.4303707480430603	-0.1000000014901161	0.1000000014901161	-0.1000000014901161	-0.02932467125356205	-1.385738492012024	0.0004413028073031437	0.4605763852596283	0.02488677762448785	-0.3783187270164489	-0.1000000014901161	0.1000000014901161	-0.1000000014901161	-1.398755311965942	-0.6339708566665648	1.074111938476562	0.3938641250133514	0.3360793888568878	-0.4274189472198486	-0.1000000014901161	0.1000000014901161	-0.1000000014901161	-2.507195472717285	-1.898220539093018	0.07689467817544922	0.3359355628490449	0.991402804851532	-0.2532476186752319	-0.1000000014901161	0.1000000014901161	-0.1000000014901161	0.2029943913221359	-2.238539695739746	-2.463170766830444	0.4050795137882234	0.594944953918457	-0.09404862672090528	-0.1000000014901161	0.1000000014901161	-0.1000000014901161	-2.469538688659668	-0.02823733724653706	1.882103800773621	0.4664890170097351	0.02325618453323838	-0.1246874332427979	-0.1000000014901161	0.1000000014901161	-0.1000000014901161	0.3350522220134738	2.329076528549194	-2.463045120239258	0.3885249197483063	0.3667246103286743	-0.09403874725103376	-0.1000000014901161	0.1000000014901161	-0.1000000014901161	
81	0.8	344.8683471679689	1027.433837890625	-306.4080200195312	347.4864807128907	1030.262573242188	-225.7809600830078	315.5932006835939	916.1596069335938	-227.6613159179688	314.0057373046876	916.9176025390625	-297.496826171875	501.4172973632813	1421.953979492188	-262.2620239257811	446.8920898437501	1439.936889648438	-91.33654785156247	440.867889404297	1464.597534179688	-435.7521362304688	369.1016845703126	1491.111328125	-253.8713226318359	398.2123718261719	647.375732421875	-90.98956298828122	394.2521972656251	545.1587524414062	-101.2585983276367	422.6554260253907	592.3275146484375	-89.62377929687497	459.8576660156251	591.5244140625	-84.94857025146482	421.7707214355469	668.7976684570312	-434.1863098144531	483.2157287597657	632.2271118164062	-433.4044189453124	422.7940063476562	563.1410522460938	-423.2555847167969	441.2056274414062	634.1376953125	-434.3618774414062	377.3423461914062	363.576416015625	-92.99515533447263	396.532958984375	419.1334838867188	-97.011360168457	391.7593078613281	317.5239562988281	-92.0578689575195	338.9161071777344	366.5050964355469	-109.4704666137695	363.577880859375	372.5485229492188	-426.2662353515625	405.1886291503906	350.4415283203125	-431.9443664550781	412.8715209960938	285.2510375976562	-423.9165344238281	430.2076416015625	394.6444702148438	-424.5943603515625	320.412841796875	28.17961502075193	-335.2307739257812	555.3192138671875	23.25930595397945	-377.7636413574218	505.965576171875	23.18953323364255	-421.9275207519531	331.4906005859375	26.48696327209471	-179.6422882080078	561.998046875	22.24990653991695	-118.1878662109375	505.9735717773438	21.00111579895017	-76.21572113037107	-1841.7900390625	614.6373901367189	-1498.11181640625	-1909.328002929688	704.5046997070314	-1584.301025390625	-1802.661499023438	662.8285522460939	-1627.248901367188	-1821.172119140625	658.2492065429689	-1628.135131835938	nan	nan	nan	nan	nan	nan	nan	nan	nan	576.6328125000001	1629.553100585938	-313.1803894042968	nan	nan	nan	453.3905944824219	903.8973999023438	-139.8905334472656	457.2893066406251	892.14599609375	-375.4740295410156	417.36572265625	461.2369689941406	-145.1447296142578	431.9366455078126	467.0444641113281	-243.9068908691406	433.2192687988281	458.4163818359375	-364.16015625	437.1863403320312	461.2703247070312	-264.2796325683594	417.3659973144531	461.2369995117188	-145.1450042724609	433.218994140625	458.4159851074219	-364.1600036621094	356.8009948730469	8.846766471862772	-222.9860534667969	337.5145874023438	18.63872909545896	-373.1466979980469	-1.482067346572876	-0.7372535467147826	0.8915095329284667	0.4426096975803376	0.6213958263397217	-0.4303695261478424	-0.1000000014901161	0.1000000014901161	-0.1000000014901161	-0.02924348413944252	-1.38572096824646	5.918951137573279e-05	0.4605658948421478	0.02487615309655663	-0.3783073425292968	-0.1000000014901161	0.1000000014901161	-0.1000000014901161	-1.398662090301514	-0.6337453722953795	1.074040532112122	0.393873542547226	0.3360702395439148	-0.427409827709198	-0.1000000014901161	0.1000000014901161	-0.1000000014901161	-2.50737452507019	-1.898232221603394	0.07683616876602158	0.3359414637088777	0.9913938045501709	-0.2532625794410706	-0.1000000014901161	0.1000000014901161	-0.1000000014901161	0.2035091668367386	-2.238409996032715	-2.463489055633545	0.4050807654857635	0.5949423909187317	-0.09403651207685468	-0.1000000014901161	0.1000000014901161	-0.1000000014901161	-2.469618320465088	-0.02814882062375531	1.881970286369324	0.4664874076843262	0.02324599586427209	-0.1246819645166397	-0.1000000014901161	0.1000000014901161	-0.1000000014901161	0.3346919715404513	2.329018354415894	-2.463325262069702	0.3885281682014465	0.3667069375514984	-0.09404973685741422	-0.1000000014901161	0.1000000014901161	-0.1000000014901161	
82	0.8100000000000001	344.8605957031251	1027.435913085938	-306.4092407226562	347.4984436035157	1030.251342773438	-225.7868804931641	315.6098022460939	916.14990234375	-227.6698455810547	314.0422058105469	916.9044799804688	-297.5006103515625	501.4544677734376	1421.976806640625	-262.2836608886718	446.9113769531251	1439.940551757812	-91.31467437744138	440.9226989746095	1464.610717773438	-435.7640686035156	369.1345520019532	1491.107299804688	-253.8781890869141	398.2216186523439	647.3670654296875	-91.00500488281247	394.2616271972657	545.162353515625	-101.2636871337891	422.6625976562501	592.3363037109375	-89.61407470703122	459.8694763183594	591.5161743164062	-84.96413421630857	421.7730712890626	668.7898559570312	-434.1763000488281	483.2400817871094	632.2086791992188	-433.4077453613281	422.7948608398439	563.1453247070312	-423.2510375976562	441.1949462890626	634.1328125	-434.3492126464844	377.346923828125	363.5946655273438	-92.99465179443357	396.5255432128906	419.1231994628906	-97.02885437011716	391.7341003417969	317.5333251953125	-92.05043029785153	338.91845703125	366.499755859375	-109.4871597290039	363.5734252929688	372.5509643554688	-426.2762756347656	405.185546875	350.435302734375	-431.9328918457031	412.8616638183594	285.2533264160156	-423.9189453125	430.2067260742188	394.6342468261719	-424.6149597167969	320.4228515625	28.15703773498533	-335.2507934570312	555.3196411132812	23.26302528381344	-377.7605285644531	505.9576721191406	23.18117523193356	-421.9304809570311	331.5057678222656	26.48325729370115	-179.6376495361328	561.9900512695312	22.24986267089841	-118.1799697875977	505.9797058105469	21.0040473937988	-76.22896575927732	-1841.796508789062	614.5691528320314	-1498.175537109375	-1909.325439453125	704.5098876953126	-1584.310791015625	-1802.643432617188	662.8276977539064	-1627.263916015625	-1821.267822265625	658.3059082031251	-1628.089599609375	673.3635864257811	994.5782470703125	3557.28173828125	669.3966674804686	971.5360717773438	3552.61962890625	nan	nan	nan	576.7688598632814	1629.64892578125	-312.9271545410156	nan	nan	nan	453.4147338867189	903.900634765625	-139.9145050048828	457.3267211914062	892.1524047851562	-375.4723815917969	417.3755493164062	461.2261657714844	-145.1540374755859	431.9575805664062	467.0133666992188	-243.9157562255859	433.2240295410156	458.4140319824219	-364.1723022460938	437.2056884765625	461.2726745605469	-264.2925109863281	417.3760070800781	461.2260131835938	-145.1540069580078	433.2239990234375	458.4140014648438	-364.1719970703125	356.7979736328125	8.8283529281616	-222.9393005371094	337.49853515625	18.63245582580564	-373.1278686523438	-1.481942176818848	-0.7370283603668212	0.8915386795997619	0.44261372089386	0.6213890910148621	-0.430363804101944	-0.1000000014901161	0.1000000014901161	-0.1000000014901161	-0.02925755083560952	-1.385784029960632	0.0002577450359240156	0.4605667293071747	0.02486708015203473	-0.3783139586448668	-0.1000000014901161	0.1000000014901161	-0.1000000014901161	-1.398760557174683	-0.6335425972938536	1.074083209037781	0.3938674926757812	0.3360680639743805	-0.4274122416973114	-0.1000000014901161	0.1000000014901161	-0.1000000014901161	-2.507130146026611	-1.898471117019653	0.07683011144399628	0.3359521329402925	0.9913864135742188	-0.2532667517662048	-0.1000000014901161	0.1000000014901161	-0.1000000014901161	0.2034224718809128	-2.238513469696045	-2.463371753692627	0.4050900638103486	0.5949414968490601	-0.09404242038726804	-0.1000000014901161	0.1000000014901161	-0.1000000014901161	-2.469658136367798	-0.02809892594814286	1.881991863250732	0.4664918780326843	0.02324572205543515	-0.1246822029352188	-0.1000000014901161	0.1000000014901161	-0.1000000014901161	0.3352035880088809	2.328575134277344	-2.463481903076172	0.3885206878185272	0.3667097687721252	-0.0940529331564903	-0.1000000014901161	0.1000000014901161	-0.1000000014901161	
83	0.8200000000000001	344.8690490722657	1027.44091796875	-306.4228820800781	347.4874267578126	1030.266967773438	-225.7767486572266	315.5985107421876	916.1754760742188	-227.6678161621094	314.0830993652344	916.8909912109375	-297.5077819824219	501.5132141113282	1422.012573242188	-262.2969055175781	446.9515991210939	1439.962890625	-91.327522277832	440.9661560058595	1464.627075195312	-435.7582397460938	369.1590270996095	1491.131469726562	-253.8789367675781	398.2098999023439	647.3956909179688	-90.99837493896482	394.2671508789062	545.1737060546875	-101.2579574584961	422.6576538085939	592.3486938476562	-89.6535949707031	459.8506469726562	591.5475463867188	-84.96372985839841	421.7752075195312	668.8035888671875	-434.1846008300781	483.2370605468751	632.2153930664062	-433.3960266113281	422.8161926269532	563.1546020507812	-423.2521667480469	441.2264404296876	634.13818359375	-434.3723754882812	377.3499450683594	363.6030883789062	-92.99902343749997	396.5320739746094	419.1443176269531	-97.01834869384763	391.7846069335938	317.5799560546875	-91.99112701416013	338.916259765625	366.5258178710938	-109.4987030029297	363.5827331542969	372.5393981933594	-426.2666320800781	405.2039489746094	350.4360656738281	-431.9485778808594	412.8901062011719	285.2566833496094	-423.9187927246094	430.2262878417969	394.6535034179688	-424.6019897460938	320.4140625	28.19078254699705	-335.2606811523438	555.3141479492188	23.27975845336911	-377.7753906249999	505.9571533203125	23.19584083557126	-421.9281311035156	331.4880065917969	26.49422264099119	-179.6224365234375	561.9954223632812	22.24821281433102	-118.1925735473633	505.9578552246094	21.02462768554685	-76.245246887207	-1841.73046875	615.0206298828126	-1498.1552734375	-1909.339477539062	704.5081787109376	-1584.324340820312	-1802.57080078125	662.8795166015626	-1627.440795898438	-1821.143920898438	658.3409423828126	-1628.136352539062	nan	nan	nan	nan	nan	nan	nan	nan	nan	576.7573852539064	1629.659301757812	-313.0918273925781	nan	nan	nan	453.3598632812501	903.9395751953125	-139.881591796875	457.3471679687501	892.1642456054688	-375.4490966796875	417.3883666992188	461.2451477050781	-145.1595611572266	431.9953918457032	467.0150756835938	-243.9185791015625	433.2298583984375	458.4222106933594	-364.1611328125	437.1972045898438	461.2816162109375	-264.2807922363281	417.3880004882812	461.2449951171875	-145.1600036621094	433.2300109863281	458.4219970703125	-364.1610107421875	356.8868103027344	8.805444717407205	-222.8545074462891	337.5392456054688	18.63869094848631	-373.1488342285156	-1.482165694236755	-0.737299621105194	0.8914760947227477	0.4426268339157104	0.6213979721069336	-0.4303685426712036	-0.1000000014901161	0.1000000014901161	-0.1000000014901161	-0.02938579767942437	-1.385794878005981	0.0002915748045779747	0.4605618119239807	0.02488879486918446	-0.3783214390277863	-0.1000000014901161	0.1000000014901161	-0.1000000014901161	-1.398618578910828	-0.6337329149246215	1.074203610420227	0.3938893377780914	0.3360692858695984	-0.4274119436740875	-0.1000000014901161	0.1000000014901161	-0.1000000014901161	-2.507360219955444	-1.898932456970215	0.07639447599649414	0.335950493812561	0.991397500038147	-0.2532697021961212	-0.1000000014901161	0.1000000014901161	-0.1000000014901161	0.2034702897071838	-2.23834490776062	-2.463255643844604	0.4050821959972383	0.59496009349823	-0.09404768049716947	-0.1000000014901161	0.1000000014901161	-0.1000000014901161	-2.469687938690186	-0.02761672995984539	1.882243633270264	0.4664804637432098	0.02325568906962869	-0.1246867552399635	-0.1000000014901161	0.1000000014901161	-0.1000000014901161	0.3356397747993473	2.327627658843994	-2.463341474533081	0.3885326981544495	0.3667409121990204	-0.09403156489133832	-0.1000000014901161	0.1000000014901161	-0.1000000014901161	
